<svg width="48" height="48" viewBox="0 0 48 48" fill="none" xmlns="http://www.w3.org/2000/svg">
<g clip-path="url(#clip0_28_5676)">
<path d="M22.9714 18.741C23.3014 17.751 24.6994 17.751 25.0294 18.741L26.9644 24.552C27.828 27.142 29.861 29.1739 32.4514 30.036L38.2594 31.971C39.2494 32.301 39.2494 33.699 38.2594 34.029L32.4484 35.964C29.8585 36.8276 27.8265 38.8606 26.9644 41.451L25.0294 47.259C24.8835 47.7037 24.4684 48.0043 24.0004 48.0043C23.5324 48.0043 23.1173 47.7037 22.9714 47.259L21.0364 41.448C20.1735 38.8587 18.1417 36.827 15.5524 35.964L9.74141 34.029C9.29674 33.8831 8.99612 33.468 8.99612 33C8.99612 32.532 9.29674 32.117 9.74141 31.971L15.5524 30.036C18.1417 29.1731 20.1735 27.1413 21.0364 24.552L22.9714 18.741M11.3824 3.44402C11.4706 3.17757 11.7197 2.99766 12.0004 2.99766C12.2811 2.99766 12.5302 3.17757 12.6184 3.44402L13.7794 6.93002C14.2984 8.48402 15.5164 9.70202 17.0704 10.221L20.5564 11.382C20.8229 11.4703 21.0028 11.7193 21.0028 12C21.0028 12.2807 20.8229 12.5298 20.5564 12.618L17.0704 13.779C15.5155 14.2951 14.2955 15.5151 13.7794 17.07L12.6184 20.556C12.5302 20.8225 12.2811 21.0024 12.0004 21.0024C11.7197 21.0024 11.4706 20.8225 11.3824 20.556L10.2214 17.07C9.70534 15.5151 8.48536 14.2951 6.93041 13.779L3.44441 12.618C3.17795 12.5298 2.99805 12.2807 2.99805 12C2.99805 11.7193 3.17795 11.4703 3.44441 11.382L6.93041 10.221C8.48536 9.70496 9.70534 8.48498 10.2214 6.93002L11.3824 3.44402M32.5894 0.297024C32.6501 0.121928 32.8151 0.0045166 33.0004 0.0045166C33.1857 0.0045166 33.3507 0.121928 33.4114 0.297024L34.1854 2.61902C34.5304 3.65702 35.3434 4.47002 36.3814 4.81502L38.7034 5.58902C38.8785 5.64973 38.9959 5.8147 38.9959 6.00002C38.9959 6.18535 38.8785 6.35032 38.7034 6.41102L36.3814 7.18502C35.3453 7.5317 34.5321 8.34488 34.1854 9.38102L33.4114 11.703C33.3507 11.8781 33.1857 11.9955 33.0004 11.9955C32.8151 11.9955 32.6501 11.8781 32.5894 11.703L31.8154 9.38102C31.4687 8.34488 30.6556 7.5317 29.6194 7.18502L27.3004 6.41102C27.1253 6.35032 27.0079 6.18535 27.0079 6.00002C27.0079 5.8147 27.1253 5.64973 27.3004 5.58902L29.6224 4.81502C30.6604 4.47002 31.4734 3.65702 31.8184 2.61902L32.5894 0.297024" fill="#585C61"/>
</g>
<defs>
<clipPath id="clip0_28_5676">
<rect width="48" height="48" fill="white"/>
</clipPath>
</defs>
</svg>
